# xmcd CD database file
#
# Track frame offsets:
#	150
#	17298
#	32354
#
# Disc length: 613 seconds
#
# Revision: 0
# Processed by: cddbd v1.5.1PL2 Copyright (c) Steve Scherf et al.
# Submitted via: CDex 1.51
#
DISCID=0f026303
DTITLE=Val Yumm - Short
DYEAR=1900
DGENRE=Blues
TTITLE0=Something Dirty
TTITLE1=I Just Meet His Girlfriend
TTITLE2=Evil Eyes
EXTD=
EXTT0=
EXTT1=
EXTT2=
PLAYORDER=
